<svg width="143" height="20" viewBox="0 0 143 20" fill="none" xmlns="http://www.w3.org/2000/svg">
<path fill-rule="evenodd" clip-rule="evenodd" d="M3.14271 6.43852C3.24642 6.85679 3.65098 7.07251 4.06196 6.9307C7.43143 5.85404 10.8092 5.11728 14.2944 4.58127C14.6938 4.52577 14.9123 4.09687 14.7655 3.66663C14.4561 2.76007 14.2996 2.30799 13.9834 1.40666C13.8491 1.02399 13.486 0.772969 13.1143 0.814856C9.70822 1.25093 6.4176 1.89495 3.11971 2.88693C2.69029 3.02695 2.42658 3.52631 2.53487 3.96927C2.77586 4.95556 2.89743 5.44923 3.14271 6.43852Z" fill="white"/>
<path fill-rule="evenodd" clip-rule="evenodd" d="M16.7988 6.93396C16.6681 6.52885 16.3131 6.25808 15.9621 6.3058C10.6299 7.0116 5.4378 8.38041 0.514229 10.6426C0.155097 10.819 -0.0603256 11.2881 0.0149579 11.7015C0.207952 12.7588 0.305378 13.2879 0.502373 14.3472C0.586513 14.8002 0.99393 15.0087 1.39578 14.8053C6.39692 12.4268 11.6819 10.9125 17.1036 10.0095C17.4482 9.95087 17.6239 9.54083 17.492 9.11837C17.2189 8.24248 17.0802 7.80566 16.7988 6.93396Z" fill="white"/>
<path fill-rule="evenodd" clip-rule="evenodd" d="M16.7837 12.8385C16.6516 12.406 16.2653 12.1238 15.8983 12.2022C12.569 12.9523 9.31467 13.8563 6.09092 15.0066C5.68208 15.1625 5.4518 15.6103 5.55923 16.0223C5.8155 17.004 5.9445 17.4956 6.20392 18.4802C6.32577 18.9428 6.82576 19.1794 7.28631 18.9972C10.5089 17.7988 13.7639 16.7524 17.0901 15.9134C17.4091 15.8329 17.5661 15.4444 17.4475 15.0437C17.1857 14.1597 17.053 13.7185 16.7837 12.8385Z" fill="white"/>
<path fill-rule="evenodd" clip-rule="evenodd" d="M29.4951 11.8701C29.4951 10.6808 28.7665 10.1871 27.3309 10.1871H25.6166V13.5529H27.3094C28.7022 13.5529 29.4951 12.9696 29.4951 11.8701ZM26.988 4.28584C26.538 4.28584 26.0668 4.33072 25.6166 4.39804V7.38236H27.0737C28.3593 7.38236 28.9594 6.82137 28.9594 5.85661C28.9594 4.93659 28.338 4.28584 26.988 4.28584ZM33.009 12.0272C33.009 14.6525 30.4807 16.4028 27.6094 16.4028H22.3384V1.90743C24.0955 1.63816 25.424 1.45864 26.9881 1.45864C29.8807 1.45864 32.1949 2.87218 32.1949 5.34053C32.1949 6.75407 31.4878 7.69653 30.2236 8.21264C32.1735 8.79607 33.009 10.0302 33.009 12.0272Z" fill="white"/>
<path fill-rule="evenodd" clip-rule="evenodd" d="M40.5591 13.5306V11.601H39.9377C38.4808 11.601 37.1523 11.9376 37.1523 12.9921C37.1523 13.7999 37.6665 14.0916 38.7165 14.0916C39.5522 14.0916 40.2377 13.8222 40.5591 13.5306ZM43.7089 9.33459V15.2359C42.552 16.1559 40.6877 16.6496 38.1594 16.6496C35.9096 16.6496 34.0454 15.6847 34.0454 13.5529C34.0454 10.3442 37.0237 9.55898 40.5592 9.44679C40.4949 8.05554 39.9592 7.69651 38.7807 7.69651C38.1594 7.69651 36.5094 7.98822 36.2953 7.98822C35.7809 7.98822 35.3739 7.65163 35.0311 6.66444L34.7738 5.85662C36.1023 5.34051 37.4094 4.98148 38.8237 4.98148C41.9091 4.98148 43.7089 6.19321 43.7089 9.33459Z" fill="white"/>
<path fill-rule="evenodd" clip-rule="evenodd" d="M55.5079 8.41461V16.4028H52.2939V9.60376C52.2939 8.41461 51.544 7.80874 50.2369 7.80874C49.7443 7.80874 49.2728 7.87606 48.8656 7.98826V16.4028H45.6303L45.6515 6.41764C47.0015 5.47518 49.187 4.95907 50.9655 4.95907C53.4297 4.95907 55.5079 6.23797 55.5079 8.41461Z" fill="white"/>
<path fill-rule="evenodd" clip-rule="evenodd" d="M56.9016 10.9277C56.9016 7.00076 59.5157 4.93647 62.9012 4.93647C63.844 4.93647 64.7011 5.07111 65.7295 5.31794C65.6011 6.43992 65.1509 7.42711 64.6582 7.9881C64.294 7.8759 63.694 7.78615 63.3513 7.78615C61.1871 7.78615 60.3085 8.953 60.3085 10.7257C60.3085 12.5207 61.1228 13.6203 63.1583 13.6203C63.7156 13.6203 64.3583 13.5081 65.1509 13.2162L65.7295 15.909C64.5511 16.4026 63.3297 16.627 62.3655 16.627C59.0658 16.627 56.9016 14.5626 56.9016 10.9277Z" fill="white"/>
<path fill-rule="evenodd" clip-rule="evenodd" d="M74.3005 10.7707C74.3005 8.93066 73.4434 7.85357 71.9436 7.85357C70.4865 7.85357 69.5867 8.93066 69.5867 10.7707C69.5867 12.7003 70.4652 13.7101 71.9436 13.7101C73.4434 13.7101 74.3005 12.7003 74.3005 10.7707ZM66.351 10.7706C66.351 7.18028 68.665 4.93647 71.9434 4.93647C75.3501 4.93647 77.5358 7.27004 77.5358 10.7706C77.5358 14.3831 75.3288 16.627 71.9434 16.627C68.5365 16.627 66.351 14.3159 66.351 10.7706Z" fill="white"/>
<path fill-rule="evenodd" clip-rule="evenodd" d="M79.3572 1.99719C80.1071 1.41376 81.7356 0.920092 82.5926 0.920092V16.4028H79.3572V1.99719Z" fill="white"/>
<path fill-rule="evenodd" clip-rule="evenodd" d="M92.3639 10.7707C92.3639 8.93066 91.5068 7.85357 90.007 7.85357C88.5499 7.85357 87.6499 8.93066 87.6499 10.7707C87.6499 12.7003 88.5285 13.7101 90.007 13.7101C91.5068 13.7101 92.3639 12.7003 92.3639 10.7707ZM84.414 10.7706C84.414 7.18028 86.7282 4.93647 90.0065 4.93647C93.4134 4.93647 95.5989 7.27004 95.5989 10.7706C95.5989 14.3831 93.392 16.627 90.0065 16.627C86.5995 16.627 84.414 14.3159 84.414 10.7706Z" fill="white"/>
<path fill-rule="evenodd" clip-rule="evenodd" d="M113.621 8.41461V16.4028H110.428V9.60376C110.428 8.41461 109.7 7.80874 108.414 7.80874C107.814 7.80874 107.235 7.94338 106.764 8.14534C106.935 8.63901 107.021 9.17756 107.021 9.76098V16.4028H103.828V9.60376C103.828 8.41461 103.1 7.80874 101.814 7.80874C101.321 7.80874 100.85 7.87606 100.443 7.98826V16.4028H97.2074L97.2289 6.41764C98.5145 5.47518 100.529 4.95907 102.221 4.95907C103.571 4.95907 104.728 5.4303 105.564 6.19324C106.657 5.45259 108.178 4.95907 109.464 4.95907C111.799 4.95907 113.621 6.26041 113.621 8.41461Z" fill="white"/>
<path fill-rule="evenodd" clip-rule="evenodd" d="M123.413 10.6136C123.413 8.54919 122.384 7.80869 120.734 7.80869C120.07 7.80869 119.534 7.94333 119.063 8.16772V13.7999C119.641 13.8895 120.199 13.9344 120.713 13.9344C122.598 13.9344 123.413 12.4086 123.413 10.6136ZM126.605 10.1872C126.605 14.271 124.291 16.6272 120.52 16.6272C118.677 16.6272 116.899 16.2681 115.828 15.7522V1.99719C116.578 1.41376 118.227 0.920092 119.063 0.920092V6.23796C119.985 5.40785 121.099 4.95906 122.106 4.95906C125.298 4.95906 126.605 7.27018 126.605 10.1872Z" fill="white"/>
<path fill-rule="evenodd" clip-rule="evenodd" d="M128.427 5.27318C128.877 5.07122 129.434 4.95902 130.056 4.95902C130.677 4.95902 131.213 5.07122 131.662 5.27318V16.4028H128.427V5.27318ZM128.385 1.7277C128.385 0.785384 129.135 0 130.035 0C130.956 0 131.706 0.762945 131.706 1.7277C131.706 2.64772 130.956 3.45554 130.035 3.45554C129.135 3.45554 128.385 2.6926 128.385 1.7277Z" fill="white"/>
<path fill-rule="evenodd" clip-rule="evenodd" d="M139.783 13.5306V11.601H139.162C137.705 11.601 136.376 11.9376 136.376 12.9921C136.376 13.7999 136.891 14.0916 137.941 14.0916C138.776 14.0916 139.462 13.8222 139.783 13.5306ZM142.933 9.33459V15.2359C141.776 16.1559 139.912 16.6496 137.384 16.6496C135.134 16.6496 133.269 15.6847 133.269 13.5529C133.269 10.3442 136.248 9.55898 139.783 9.44679C139.719 8.05554 139.183 7.69651 138.005 7.69651C137.384 7.69651 135.734 7.98822 135.519 7.98822C135.005 7.98822 134.598 7.65163 134.255 6.66444L133.998 5.85662C135.326 5.34051 136.634 4.98148 138.048 4.98148C141.133 4.98148 142.933 6.19321 142.933 9.33459Z" fill="white"/>
</svg>
