<svg width="41" height="18" viewBox="0 0 41 18" fill="none" xmlns="http://www.w3.org/2000/svg">
<path d="M21.4088 9.35314C21.4088 8.92252 21.3948 8.57689 21.3809 8.2596H21.9457L21.9737 8.8347H21.9877C22.2449 8.42674 22.6504 8.18311 23.2152 8.18311C24.0513 8.18311 24.6777 8.8687 24.6777 9.88858C24.6777 11.0954 23.9199 11.6904 23.1062 11.6904C22.6504 11.6904 22.2505 11.4977 22.0436 11.1634H22.0296V12.9851H21.4088V9.35314ZM22.0296 10.2484C22.0296 10.339 22.0436 10.4212 22.0576 10.4977C22.1722 10.9198 22.5497 11.2116 22.9999 11.2116C23.6626 11.2116 24.0485 10.6847 24.0485 9.91691C24.0485 9.24549 23.685 8.67038 23.0195 8.67038C22.5917 8.67038 22.1918 8.96785 22.0687 9.4268C22.0464 9.50329 22.0268 9.59395 22.0268 9.67611V10.2484H22.0296Z" fill="#202020"/>
<path d="M25.4688 6.69238H26.0979V11.6133H25.4688V6.69238Z" fill="#202020"/>
<path d="M29.0637 11.6111L29.0133 11.1889H28.991C28.798 11.4524 28.4261 11.6875 27.934 11.6875C27.2349 11.6875 26.877 11.2088 26.877 10.7243C26.877 9.91408 27.618 9.4693 28.9546 9.47779V9.4098C28.9546 9.13217 28.8763 8.63356 28.1688 8.63356C27.8473 8.63356 27.5117 8.72988 27.2684 8.88286L27.1258 8.48057C27.411 8.29926 27.8249 8.18311 28.2611 8.18311C29.3181 8.18311 29.5754 8.88286 29.5754 9.55429V10.8093C29.5754 11.1011 29.5894 11.3844 29.6313 11.6139H29.0637V11.6111ZM28.9714 9.89991C28.2863 9.88575 27.5089 10.0047 27.5089 10.6563C27.5089 11.0501 27.7802 11.2371 28.1017 11.2371C28.5519 11.2371 28.8372 10.9595 28.9378 10.6762C28.9602 10.6138 28.9742 10.5458 28.9742 10.4835V9.89991H28.9714Z" fill="#202020"/>
<path d="M31.3212 7.29297V8.25619H32.2216V8.72081H31.3212V10.5283C31.3212 10.9447 31.4414 11.1799 31.7909 11.1799C31.9559 11.1799 32.0762 11.16 32.1544 11.1374L32.1824 11.5935C32.0622 11.6417 31.8692 11.6756 31.6259 11.6756C31.3323 11.6756 31.0974 11.585 30.9492 11.4207C30.7703 11.2394 30.706 10.9419 30.706 10.5481V8.71798H30.1719V8.25336H30.706V7.44879L31.3212 7.29297Z" fill="#202020"/>
<path d="M34.843 11.6111L34.7926 11.1889H34.7703C34.5773 11.4524 34.2054 11.6875 33.7133 11.6875C33.0142 11.6875 32.6562 11.2088 32.6562 10.7243C32.6562 9.91408 33.3973 9.4693 34.7339 9.47779V9.4098C34.7339 9.13217 34.6556 8.63356 33.9481 8.63356C33.6266 8.63356 33.291 8.72988 33.0477 8.88286L32.9051 8.48057C33.1903 8.29926 33.6042 8.18311 34.0404 8.18311C35.0974 8.18311 35.3547 8.88286 35.3547 9.55429V10.8093C35.3547 11.1011 35.3687 11.3844 35.4106 11.6139H34.843V11.6111ZM34.7479 9.89991C34.0628 9.88575 33.2854 10.0047 33.2854 10.6563C33.2854 11.0501 33.5567 11.2371 33.8782 11.2371C34.3284 11.2371 34.6137 10.9595 34.7143 10.6762C34.7367 10.6138 34.7507 10.5458 34.7507 10.4835V9.89991H34.7479Z" fill="#202020"/>
<path d="M10.1506 6.99693C8.90064 6.96293 7.28718 10.1161 6.85934 11.1615C6.61886 11.7451 7.36268 12.1644 7.60316 11.5808C8.00023 10.609 9.35644 7.90066 10.1534 7.9035C10.9475 7.90916 12.259 10.6317 12.6477 11.6091C12.8798 12.1955 13.6292 11.7847 13.3943 11.1983C12.9776 10.1472 11.3977 6.9771 10.1506 6.99693ZM6.80342 9.28034C6.80062 9.24352 6.79223 9.20952 6.78664 9.17269C6.7447 8.94322 6.6692 8.73357 6.56853 8.54659C6.56573 8.54376 6.56294 8.53809 6.56014 8.53526C6.53218 8.4871 6.50421 8.44177 6.47346 8.39644C6.45388 8.36528 6.43151 8.33695 6.41194 8.30862C6.39796 8.28879 6.38397 8.27179 6.36999 8.25196C6.33923 8.21513 6.31127 8.1783 6.28051 8.1443C6.24695 8.10747 6.2162 8.07348 6.18264 8.03948C6.17425 8.03098 6.16866 8.02532 6.16027 8.01682C4.84601 6.75612 1.9798 6.88361 1.16049 7.22074C0.606819 7.44738 0.796968 8.11314 1.40376 7.8525C2.39086 7.60886 3.3416 7.61453 4.31471 7.8525C5.10886 8.04515 5.94216 8.72224 5.94216 9.44749C5.88623 11.2521 3.42549 11.3258 2.42721 11.0906V8.84406C2.42721 8.30862 1.71695 8.30295 1.71695 8.83839V11.0963C1.71695 11.5496 1.95743 11.7139 2.27621 11.7847C3.02841 11.9519 6.17984 12.1304 6.7419 9.9546C6.75309 9.91211 6.76147 9.87245 6.76986 9.83278C6.77825 9.79595 6.78664 9.75913 6.79223 9.71946C6.8146 9.57215 6.8174 9.43333 6.80622 9.30018C6.80342 9.29451 6.80342 9.28601 6.80342 9.28034ZM20.0299 7.48421C20.0299 6.85811 19.219 6.86094 19.219 7.47288V11.4221C19.219 12.0142 20.0299 12.0369 20.0299 11.4448V7.48421ZM17.9998 7.25757C17.6447 8.23496 16.4339 10.9632 15.6984 10.9717C14.963 10.9773 13.7075 8.27462 13.3356 7.3029C13.1119 6.71929 12.4268 7.14425 12.6505 7.72502C13.0504 8.7704 14.5604 11.9179 15.7152 11.8782C16.8701 11.8952 18.313 8.71941 18.6933 7.66552C18.9058 7.07909 18.2151 6.67113 17.9998 7.25757Z" fill="#FF1A25"/>
<path d="M38.7808 5.14435C38.1489 4.62591 37.0779 3.84966 36.7591 3.62018C36.801 3.14707 36.8877 2.63429 36.9996 2.19801C37.1282 1.6994 37.2429 1.26878 36.9996 0.968476C36.8374 0.764499 36.5522 0.671009 36.102 0.671009H34.427C34.0467 0.671009 33.7699 0.778664 33.6049 0.988308C33.4818 1.14696 33.4315 1.3566 33.4567 1.59457C31.6587 0.642679 30.1011 0.0789082 29.2371 0.0732422H29.2343C28.3087 0.0789082 26.5806 0.72767 24.612 1.80988C24.3324 1.96287 22.6322 2.93743 21.8101 3.55219C21.7961 3.56069 20.4427 4.51258 19.6961 5.12168C19.3354 5.41632 19.0725 5.68829 18.8796 5.94043H18.8824C18.8544 5.97442 18.832 6.01692 18.832 6.06508C18.832 6.17557 18.9243 6.26622 19.039 6.26622C19.1033 6.26622 19.1564 6.23506 19.1955 6.19256L19.1983 6.1954C19.1983 6.1954 19.2571 6.11607 19.2962 6.06508C19.4696 5.85827 19.6877 5.64296 19.9561 5.42482C20.6944 4.82422 22.0338 3.88365 22.0534 3.86949C22.8643 3.26322 24.5393 2.30283 24.8133 2.15268C26.7232 1.10163 28.3758 0.472698 29.2371 0.467032C30.0983 0.472698 31.7509 1.10163 33.6608 2.15268C33.7307 2.19234 33.8174 2.18668 33.8817 2.13851C33.946 2.09319 33.9768 2.01386 33.9572 1.93737C33.946 1.89204 33.932 1.84388 33.9181 1.79572C33.9097 1.77022 33.9013 1.74472 33.8957 1.71639C33.8593 1.59457 33.8174 1.36793 33.9292 1.22345C34.0355 1.0903 34.2592 1.06197 34.4298 1.06197H36.1048C36.4068 1.06197 36.6053 1.11296 36.6808 1.20928C36.801 1.35943 36.706 1.71923 36.6081 2.10168C36.4823 2.5918 36.3872 3.1754 36.348 3.69951C36.3425 3.7675 36.3732 3.83266 36.4291 3.87232C36.4431 3.88082 37.7881 4.84405 38.5208 5.44465C39.41 6.17273 39.7875 6.85266 39.5834 7.35694C39.3569 7.91787 38.4089 8.25217 37.2317 8.19551C37.0919 8.18984 36.9548 8.18134 36.8178 8.17568L36.5634 8.16435C36.5074 8.16151 36.4515 8.18134 36.4124 8.22101C36.3732 8.25784 36.3508 8.31166 36.3508 8.36549C36.3676 8.98876 36.5578 10.2494 37.6511 11.6801C38.6326 12.819 38.7752 14.1335 38.0482 15.2922C37.1785 16.6776 35.0002 17.7881 32.0921 17.1535C32.0557 17.145 32.0194 17.1479 31.983 17.1592C31.1889 17.417 29.9026 17.5303 29.2399 17.5303C28.5771 17.5303 27.2908 17.4142 26.4995 17.1592C26.4799 17.1535 26.4575 17.1479 26.4352 17.1479C26.4212 17.1479 26.4044 17.1507 26.3904 17.1535C23.4823 17.7881 21.3012 16.6747 20.4315 15.2922C19.9589 14.5386 19.8583 13.7199 20.1155 12.9238C20.1155 12.9238 20.1267 12.8813 20.1239 12.8473C20.1239 12.8445 20.1239 12.8388 20.1239 12.836C20.1155 12.7538 20.0512 12.6887 19.9645 12.6717C19.8778 12.6547 19.7968 12.6915 19.752 12.7623L19.7492 12.768C19.7268 12.8048 19.7073 12.8927 19.7073 12.8927C19.4528 13.7709 19.573 14.6803 20.0876 15.499C20.8482 16.7087 22.5148 17.7315 24.7546 17.7315C25.2831 17.7315 25.8424 17.6748 26.4268 17.5501C27.3076 17.8221 28.6135 17.9269 29.2427 17.9269C29.8718 17.9269 31.1777 17.8249 32.0585 17.5501C35.1345 18.2017 37.4554 16.9949 38.3949 15.499C39.2059 14.2072 39.0437 12.6858 37.9699 11.4393C37.0611 10.2523 36.8206 9.19557 36.7675 8.56947L36.7983 8.5723C36.9353 8.57797 37.0723 8.58647 37.2121 8.59213C38.5851 8.65729 39.6645 8.23234 39.9609 7.50425C40.1538 7.02547 40.1063 6.22939 38.7808 5.14435Z" fill="#FF1A25"/>
</svg>
